<svg width="147" height="97" viewBox="0 0 147 97" fill="none" xmlns="http://www.w3.org/2000/svg">
<path d="M0.0196703 4.15925C0.00880666 3.45342 0.568888 2.86996 1.27065 2.85607L144.281 0.0250768C144.983 0.0111849 145.56 0.572118 145.571 1.27795L146.98 92.8406C146.991 93.5464 146.431 94.1299 145.729 94.1438L2.71924 96.9748C2.01748 96.9887 1.43979 96.4277 1.42892 95.7219L0.0196703 4.15925Z" fill="white"/>
<path d="M137.339 47.233C137.677 69.2247 109.656 87.6126 74.7519 88.3036C39.8475 88.9945 11.2775 71.7269 10.939 49.7352C10.6006 27.7435 38.6218 9.35564 73.5261 8.66468C108.431 7.97372 137 25.2414 137.339 47.233Z" fill="black"/>
<path d="M83.9549 67.4649L83.3164 30.6769L98.468 30.4109L103.057 52.2199L106.937 30.2622L121.706 30.0029L122.344 66.7909L112.192 66.9691L111.803 44.5475L107.703 67.048L98.6474 67.2069L93.725 45.2754L94.107 67.2866L83.9549 67.4649Z" fill="white"/>
<path d="M49.5213 68.0693L57.1218 31.1367L73.3192 30.8524L82.3243 67.4935L70.6162 67.699L69.2967 60.7678L62.1035 60.8941L61.0763 67.8665L49.5213 68.0693ZM63.3398 52.7376L67.8036 52.6592L65.3569 39.5889L63.3398 52.7376Z" fill="white"/>
<path d="M32.9913 68.3596L32.5038 40.2684L24.5709 40.4077L24.4199 31.7109L51.5092 31.2354L51.6601 39.9321L43.7272 40.0714L44.2147 68.1626L32.9913 68.3596Z" fill="white"/>
</svg>
